<svg xmlns="http://www.w3.org/2000/svg" viewBox="0 0 64 64" role="img" aria-labelledby="t"><title id="t">铁路轮对</title><circle fill="#202020" stroke="#202020" stroke-linecap="round" stroke-linejoin="round" cx="22" cy="29" r="18"/><circle fill="#202020" stroke="#202020" stroke-linecap="round" stroke-linejoin="round" cx="42" cy="29" r="18"/><circle fill="#ffffff" cx="22" cy="29" r="12"/><circle fill="#ffffff" cx="42" cy="29" r="12"/><circle fill="#202020" stroke="#202020" stroke-linecap="round" stroke-linejoin="round" cx="22" cy="29" r="5"/><circle fill="#202020" stroke="#202020" stroke-linecap="round" stroke-linejoin="round" cx="42" cy="29" r="5"/><g fill="#202020" stroke="#202020" stroke-linecap="round" stroke-linejoin="round"><path d="M20 27l-10-15 4-3 11 18z"/><path d="M24 27L34 12l4 3-11 17z"/><path d="M40 27L30 12l4-3 11 18z"/><path d="M44 27l10-15 4 3-11 18z"/></g><path fill="none" stroke="#ffffff" stroke-linecap="round" stroke-linejoin="round" stroke-width="2" d="M22 18v22m-11-11h22M42 18v22m-11-11h22"/><path fill="#202020" stroke="#202020" stroke-linecap="round" stroke-linejoin="round" d="M6 49h52v6H6zM11 58h42v4H11z"/></svg>
